# xmcd
#
# Track frame offsets: 
#        150
#        10885
#        31586
#        51363
#        75748
#        81354
#        108663
#        129129
#        149010
#        168820
#        198546
#        219776
#        232548
#        246045
#
# Disc length: 3506 seconds
#
# Revision: 0
# Processed by: cddbd v1.5.2PL0 Copyright (c) Steve Scherf et al.
# Submitted via: ExactAudioCopy v0.99pb5
#
DISCID=ab0db00e
DTITLE=Greg Guitarska - Cold Cold Day
DYEAR=2012
DGENRE=Blues
TTITLE0=Melee
TTITLE1=Roadhouse Blues
TTITLE2=Cold Cold Day
TTITLE3=By My Side
TTITLE4=The Vault
TTITLE5=Every Night
TTITLE6=Sunshine
TTITLE7=Standin' Tall
TTITLE8=Baby Blue
TTITLE9=You Shook Me
TTITLE10=I Want Your Love
TTITLE11=Thank The The Lord
TTITLE12=What Are You Doing The Rest Of Your Life
TTITLE13=Straight Jacket Blues
EXTD=
EXTT0=
EXTT1=
EXTT2=
EXTT3=
EXTT4=
EXTT5=
EXTT6=
EXTT7=
EXTT8=
EXTT9=
EXTT10=
EXTT11=
EXTT12=
EXTT13=
PLAYORDER=
